<svg width="20" height="20" viewBox="0 0 20 20" fill="none" xmlns="http://www.w3.org/2000/svg">
<path d="M4 12.5023H6.16112L7.29526 9.3053H12.3408L13.466 12.5023H15.6272L10.9299 0H8.6973L4 12.5023ZM7.94716 7.49247L9.76 2.32186H9.86716L11.68 7.49247H7.94716Z" fill="black"/>
<path d="M0.103975 13.6455L1.55298 13.6455L1.55298 14.1745C1.55298 14.7265 1.69098 15.0945 1.96698 15.2785C2.22764 15.4778 2.70298 15.5775 3.39298 15.5775C4.05231 15.5775 4.68864 15.5545 5.30198 15.5085C5.93064 15.4778 6.61298 15.4625 7.34898 15.4625C8.16164 15.4625 8.75964 15.5852 9.14298 15.8305C9.54164 16.0758 9.80998 16.4668 9.94798 17.0035L10.04 17.0035C10.178 16.4668 10.4386 16.0758 10.822 15.8305C11.2206 15.5852 11.8263 15.4625 12.639 15.4625C13.375 15.4625 14.0496 15.4778 14.663 15.5085C15.2916 15.5545 15.9356 15.5775 16.595 15.5775C17.285 15.5775 17.7603 15.4778 18.021 15.2785C18.297 15.0945 18.435 14.7265 18.435 14.1745L18.435 13.6455L19.884 13.6455L19.884 14.8875C19.884 15.8535 19.6616 16.5665 19.217 17.0265C18.7723 17.4865 17.9366 17.7165 16.71 17.7165C15.882 17.7165 15.169 17.6782 14.571 17.6015C13.973 17.5402 13.2906 17.5095 12.524 17.5095C12.11 17.5095 11.719 17.6475 11.351 17.9235C10.9983 18.1995 10.8143 18.7208 10.799 19.4875L9.18898 19.4875C9.17364 18.7208 8.98198 18.1995 8.61398 17.9235C8.26131 17.6475 7.87031 17.5095 7.44098 17.5095C6.68964 17.5095 6.01498 17.5402 5.41698 17.6015C4.81898 17.6782 4.10598 17.7165 3.27798 17.7165C2.06664 17.7165 1.23864 17.4865 0.793975 17.0265C0.333975 16.5665 0.103975 15.8535 0.103975 14.8875L0.103975 13.6455Z" fill="black"/>
</svg>
