<svg width="23" height="23" viewBox="0 0 17 22" fill="none" xmlns="http://www.w3.org/2000/svg">
<path d="M0 18.5693H17V22H0V18.5693ZM3.23187 13.5133H5.22855L6.2764 10.6986H10.9381L11.9777 13.5133H13.9744L9.63446 2.5061H7.57177L3.23187 13.5133ZM6.8787 9.10258L8.55361 4.5503H8.65262L10.3275 9.10258H6.8787Z" fill="black"/>
<path d="M15.1111 1.79996V14.3997H1.88889V1.79996H15.1111ZM15.1111 0H1.88889C0.85 0 0 0.809982 0 1.79996V14.3997C0 15.3896 0.85 16.1996 1.88889 16.1996H15.1111C16.15 16.1996 17 15.3896 17 14.3997V1.79996C17 0.809982 16.15 0 15.1111 0Z" fill="black"/>
</svg>
