<svg width="30" height="30" viewBox="0 0 30 30" fill="none" xmlns="http://www.w3.org/2000/svg">
<g clip-path="url(#clip0_246_5575)">
<path fill-rule="evenodd" clip-rule="evenodd" d="M8.04744 11.3945C7.34926 5.97742 11.0087 2.17927 17.8942 0C13.681 4.71137 21.4814 9.81708 21.9148 14.7152C22.9259 13.2209 23.5037 11.2492 23.6241 8.59254C28.7762 15.5869 24.4908 26.9814 13.1514 25.3418C12.0921 25.1965 11.105 24.9059 10.1901 24.4908C6.0492 22.5814 3.56946 18.4304 3.56946 14.4662C3.56946 11.9341 4.82137 9.67179 6.45848 7.88687C6.67516 9.63029 7.13259 10.9586 8.04744 11.3945Z" fill="#BB3030"/>
<path fill-rule="evenodd" clip-rule="evenodd" d="M11.731 19.2191C10.5513 16.6039 10.7198 12.4114 13.994 10.9378C14.0181 15.7737 19.5313 16.3756 18.5202 21.5436C19.4591 20.6096 19.9406 19.1568 20.0128 17.9738C21.5296 20.9417 20.3499 23.3078 18.2072 24.5116C11.7069 28.1644 6.12146 20.7342 9.85311 16.6662C9.94941 17.5794 11.2495 18.9907 11.731 19.2191Z" fill="#FAA21E"/>
</g>
<g clip-path="url(#clip1_246_5575)">
<path d="M16.0362 8.62421L14.8547 7.48234L14.8143 18.1486L16.0124 18.1883M15.3083 24.7161L14.2706 24.7125C14.1562 24.7122 14.043 24.6903 13.9375 24.648C13.8319 24.6056 13.7361 24.5438 13.6555 24.4659C13.5749 24.388 13.5111 24.2956 13.4678 24.194C13.4244 24.0925 13.4024 23.9837 13.4029 23.8739L13.4169 20.1763L10.1188 20.1529L10.1251 18.4819L11.8792 18.488L11.9192 7.91655L14.8636 5.11206L17.7868 7.93699L17.7467 18.5084L19.5008 18.5146L19.4945 20.1856L16.1963 20.1741L16.1823 23.8718C16.1805 24.3458 15.79 24.7178 15.3083 24.7161Z" fill="#100B0B"/>
<rect x="14.1337" y="7.44217" width="2.62042" height="11.1149" fill="#100B0B"/>
<path d="M16.1481 15.6509C16.1277 15.739 16.0988 15.8255 16.0614 15.9103C16.0239 15.9919 15.9865 16.0539 15.9491 16.0964C15.8913 16.1094 15.7552 16.1159 15.5409 16.1159L15.5409 17.095C15.5409 17.2811 15.546 17.4181 15.5562 17.5062C15.5664 17.5944 15.5885 17.658 15.6225 17.6972C15.66 17.7363 15.7161 17.7559 15.7909 17.7559C15.8453 17.7559 15.893 17.7445 15.9338 17.7216C15.9746 17.6955 16.0205 17.6547 16.0716 17.5993L16.1379 17.707C16.0733 17.8179 15.9899 17.9011 15.8879 17.9566C15.7858 18.0121 15.6821 18.0398 15.5766 18.0398C15.4235 18.0398 15.3045 17.9942 15.2194 17.9028C15.1378 17.8081 15.097 17.6433 15.097 17.4083C15.097 17.1016 15.1157 16.6675 15.1531 16.1062L14.2449 16.0964L14.2449 16.1894C14.2449 16.5321 14.2211 16.8307 14.1734 17.0852C14.1292 17.3365 14.0782 17.5356 14.0204 17.6825C13.9659 17.8261 13.92 17.9175 13.8826 17.9566C13.7465 18.0088 13.6428 18.0366 13.5714 18.0398L13.5356 17.9566C13.7159 17.7543 13.8452 17.4736 13.9234 17.1146C14.0051 16.7556 14.0459 16.4129 14.0459 16.0866C13.8826 16.0866 13.755 16.1062 13.6632 16.1453C13.5714 16.1812 13.4608 16.2432 13.3315 16.3313L13.255 16.2236C13.3298 16.129 13.4013 16.0507 13.4693 15.9887C13.5373 15.9267 13.6292 15.8728 13.7448 15.8271C13.8639 15.7814 14.0085 15.7586 14.1785 15.7586C14.2942 15.7586 14.5119 15.7618 14.8317 15.7684C15.199 15.7749 15.4848 15.7782 15.6889 15.7782C15.7739 15.7782 15.8385 15.7667 15.8828 15.7439C15.9304 15.7211 15.978 15.6737 16.0256 15.6019L16.1481 15.6509Z" fill="#FFFAFA"/>
</g>
<defs>
<clipPath id="clip0_246_5575">
<rect width="22.3899" height="25.5286" fill="white" transform="translate(3.56946)"/>
</clipPath>
<clipPath id="clip1_246_5575">
<rect width="20.5393" height="20.5455" fill="white" transform="matrix(0.719079 0.694928 -0.724103 0.689691 14.8771 1.55664)"/>
</clipPath>
</defs>
</svg>
